<?xml version="1.0" encoding="utf-8"?>
<!-- Generator: Adobe Illustrator 25.2.3, SVG Export Plug-In . SVG Version: 6.00 Build 0)  -->
<svg version="1.1" id="Layer_1" xmlns:v="https://vecta.io/nano"
	 xmlns="http://www.w3.org/2000/svg" xmlns:xlink="http://www.w3.org/1999/xlink" x="0px" y="0px" viewBox="0 0 160 160"
	 style="enable-background:new 0 0 160 160;" xml:space="preserve">
<style type="text/css">
	.st0{fill:#1EA34A;}
	.st1{clip-path:url(#SVGID_2_);}
	.st2{fill:#FFFFFF;}
</style>
<circle class="st0" cx="46.6" cy="80.5" r="34.8"/>
<g>
	<defs>
		<rect id="SVGID_1_" x="16" y="61.5" width="61.1" height="39.6"/>
	</defs>
	<clipPath id="SVGID_2_">
		<use xlink:href="#SVGID_1_"  style="overflow:visible;"/>
	</clipPath>
	<g class="st1">
		<path class="st2" d="M52.3,95.2L50.1,93l-3.3,3.3c-0.1,0.1-0.3,0.2-0.5,0.2c-0.2,0-0.4-0.1-0.5-0.2l-3.2-3.2l-2.1,2.1l5.9,5.9
			L52.3,95.2z"/>
		<path class="st2" d="M25,88h0.8v-3.1l-5.4-3.2c-0.1-0.1-0.2-0.2-0.3-0.3c-0.1-0.1-0.1-0.2-0.1-0.4l0.1-10.9c0-0.1,0-0.3,0.1-0.4
			c0.1-0.1,0.2-0.2,0.3-0.3l7.8-4.4c0.1-0.1,0.2-0.1,0.4-0.1c0.1,0,0.3,0,0.4,0.1l3.9,2.3l2.1-2.1l-6.6-3.8L16,68.7V75l2-2v11L25,88
			z"/>
		<path class="st2" d="M28.7,66.6l-7,4l-0.1,10.1l4.2,2.5v-8.3c0-0.1,0-0.2,0.1-0.3c0-0.1,0.1-0.2,0.2-0.2l5.8-5.9L28.7,66.6z"/>
		<path class="st2" d="M57.9,65.4l2.1,2.1l4-2.4c0.1-0.1,0.2-0.1,0.4-0.1c0.1,0,0.3,0,0.4,0.1l7.8,4.4c0.1,0.1,0.2,0.2,0.3,0.3
			c0.1,0.1,0.1,0.2,0.1,0.4L73.1,81c0,0.1,0,0.3-0.1,0.4c-0.1,0.1-0.2,0.2-0.3,0.3L67.1,85v3h1.1l7-4V73l2,2v-6.3l-12.4-7.2
			L57.9,65.4z"/>
		<path class="st2" d="M71.5,80.6l-0.1-10.1l-7-3.9l-3.3,2l5.8,5.8c0.1,0.1,0.1,0.2,0.2,0.2c0,0.1,0.1,0.2,0.1,0.3v8.4L71.5,80.6z"
			/>
		<path class="st2" d="M56.6,97.3l9-9V75.2l-9.3-9.3H36.6l-9.3,9.3v13.2l9,9l5.3-5.3l-0.9-0.9c-0.1-0.1-0.2-0.3-0.2-0.4
			c0-0.2,0-0.3,0.1-0.4l5.2-7.7c0.1-0.1,0.1-0.2,0.2-0.2c0.1-0.1,0.2-0.1,0.3-0.1s0.2,0,0.3,0.1c0.1,0.1,0.2,0.1,0.2,0.2l5.2,7.7
			c0.1,0.1,0.1,0.3,0.1,0.4c0,0.2-0.1,0.3-0.2,0.4L51.2,92L56.6,97.3z M56.4,84.5c0.3,0,0.6,0.1,0.9,0.3c0.3,0.2,0.5,0.4,0.6,0.7
			c0.1,0.3,0.2,0.6,0.1,0.9c-0.1,0.3-0.2,0.6-0.4,0.8c-0.2,0.2-0.5,0.4-0.8,0.4c-0.3,0.1-0.6,0-0.9-0.1c-0.3-0.1-0.5-0.3-0.7-0.6
			s-0.3-0.6-0.3-0.9c0-0.2,0-0.4,0.1-0.6c0.1-0.2,0.2-0.4,0.3-0.5c0.1-0.1,0.3-0.3,0.5-0.3C56,84.6,56.2,84.5,56.4,84.5L56.4,84.5z
			 M35.5,84.5c0.4,0,0.8,0.2,1.1,0.5c0.3,0.3,0.5,0.7,0.5,1.1c0,0.4-0.2,0.8-0.5,1.1c-0.3,0.3-0.7,0.5-1.1,0.5
			c-0.4,0-0.8-0.2-1.1-0.5c-0.3-0.3-0.5-0.7-0.5-1.1c0-0.4,0.2-0.8,0.5-1.1C34.7,84.7,35.1,84.5,35.5,84.5z"/>
	</g>
</g>
<path class="st2" d="M46.6,115.3"/>
</svg>
