<?xml version="1.0" encoding="utf-8"?>
<!-- Generator: Adobe Illustrator 25.4.1, SVG Export Plug-In . SVG Version: 6.00 Build 0)  -->
<svg version="1.1" id="Layer_1" xmlns:v="https://vecta.io/nano"
	 xmlns="http://www.w3.org/2000/svg" xmlns:xlink="http://www.w3.org/1999/xlink" x="0px" y="0px" viewBox="0 0 160 160"
	 style="enable-background:new 0 0 160 160;" xml:space="preserve">
<style type="text/css">
	.st0{fill:#4B46BD;}
	.st1{fill:#FBFBFC;}
	.st2{fill:#8247E5;}
	.st3{fill:#FFFFFF;}
</style>
<g>
	<path class="st0" d="M47,51.65c-15.66,0-28.35,12.69-28.35,28.35S31.34,108.35,47,108.35S75.35,95.66,75.35,80
		S62.66,51.65,47,51.65z M46.74,61.66c1.8,1.8,3.53,3.54,5.3,5.32c-3.39,3.37-6.84,6.8-10.42,10.36c1.86,1.74,3.6,3.37,5.26,4.92
		c-1.85,1.91-3.41,3.54-5.07,5.25c-3.44-3.28-6.89-6.56-10.46-9.97C36.53,72.19,41.67,66.88,46.74,61.66z M47.05,98.3
		c-1.81-1.83-3.51-3.53-5.25-5.29c3.43-3.39,6.9-6.82,10.49-10.36c-1.97-1.84-3.71-3.47-5.34-4.99c1.79-1.9,3.36-3.57,5.02-5.33
		c3.45,3.29,6.89,6.56,10.51,10.01C57.34,87.67,52.22,92.96,47.05,98.3z"/>
	<path class="st1" d="M46.96,77.66c1.63,1.52,3.37,3.15,5.34,4.99c-3.59,3.54-7.06,6.97-10.49,10.36c1.74,1.76,3.44,3.46,5.25,5.29
		c5.17-5.34,10.29-10.63,15.44-15.96c-3.62-3.45-7.06-6.72-10.51-10.01C50.32,74.09,48.75,75.76,46.96,77.66z"/>
	<path class="st1" d="M46.88,82.26c-1.66-1.55-3.4-3.18-5.26-4.92c3.58-3.56,7.03-6.99,10.42-10.36c-1.78-1.78-3.5-3.52-5.3-5.32
		c-5.07,5.23-10.21,10.53-15.39,15.88c3.58,3.41,7.02,6.69,10.46,9.97C43.47,85.79,45.03,84.17,46.88,82.26z"/>
</g>
<circle class="st2" cx="113.02" cy="79.98" r="28.33"/>
<path class="st3" d="M122.4,73.92c-0.68-0.4-1.56-0.4-2.31,0l-5.3,3.03l-3.6,1.98l-5.3,3.03c-0.68,0.4-1.56,0.4-2.31,0l-4.21-2.37
	c-0.68-0.4-1.16-1.12-1.16-1.91V73c0-0.79,0.41-1.52,1.16-1.91l4.14-2.31c0.68-0.4,1.56-0.4,2.31,0l4.14,2.31
	c0.68,0.4,1.16,1.12,1.16,1.91v3.03l3.6-2.04v-3.03c0-0.79-0.41-1.52-1.16-1.91l-7.68-4.35c-0.68-0.4-1.56-0.4-2.31,0l-7.81,4.35
	c-0.75,0.4-1.16,1.12-1.16,1.91v8.76c0,0.79,0.41,1.52,1.16,1.91l7.81,4.35c0.68,0.4,1.56,0.4,2.31,0l5.3-2.96l3.6-2.04l5.3-2.96
	c0.68-0.4,1.56-0.4,2.31,0l4.14,2.31c0.68,0.4,1.16,1.12,1.16,1.91v4.68c0,0.79-0.41,1.52-1.16,1.91l-4.14,2.37
	c-0.68,0.4-1.56,0.4-2.31,0l-4.14-2.31c-0.68-0.4-1.16-1.12-1.16-1.91v-3.03l-3.6,2.04v3.03c0,0.79,0.41,1.52,1.16,1.91l7.81,4.35
	c0.68,0.4,1.56,0.4,2.31,0l7.81-4.35c0.68-0.4,1.16-1.12,1.16-1.91v-8.76c0-0.79-0.41-1.52-1.16-1.91L122.4,73.92z"/>
</svg>
