<?xml version="1.0" encoding="utf-8"?>
<!-- Generator: Adobe Illustrator 25.4.1, SVG Export Plug-In . SVG Version: 6.00 Build 0)  -->
<svg version="1.1" id="Layer_1" xmlns:v="https://vecta.io/nano"
	 xmlns="http://www.w3.org/2000/svg" xmlns:xlink="http://www.w3.org/1999/xlink" x="0px" y="0px" viewBox="0 0 160 160"
	 style="enable-background:new 0 0 160 160;" xml:space="preserve">
<style type="text/css">
	.st0{fill:#4B46BD;}
	.st1{fill:#FBFBFC;}
	.st2{fill:#20A34A;}
	.st3{fill:#FFFFFF;}
</style>
<g>
	<path class="st0" d="M47,51.65c-15.66,0-28.35,12.69-28.35,28.35S31.34,108.35,47,108.35S75.35,95.66,75.35,80
		S62.66,51.65,47,51.65z M46.74,61.66c1.8,1.8,3.53,3.54,5.3,5.32c-3.39,3.37-6.84,6.8-10.42,10.36c1.86,1.74,3.6,3.37,5.26,4.92
		c-1.85,1.91-3.41,3.54-5.07,5.25c-3.44-3.28-6.89-6.56-10.46-9.97C36.53,72.19,41.67,66.88,46.74,61.66z M47.05,98.3
		c-1.81-1.83-3.51-3.53-5.25-5.29c3.43-3.39,6.9-6.82,10.49-10.36c-1.97-1.84-3.71-3.47-5.34-4.99c1.79-1.9,3.36-3.57,5.02-5.33
		c3.45,3.29,6.89,6.56,10.51,10.01C57.34,87.67,52.22,92.96,47.05,98.3z"/>
	<path class="st1" d="M46.96,77.66c1.63,1.52,3.37,3.15,5.34,4.99c-3.59,3.54-7.06,6.97-10.49,10.36c1.74,1.76,3.44,3.46,5.25,5.29
		c5.17-5.34,10.29-10.63,15.44-15.96c-3.62-3.45-7.06-6.72-10.51-10.01C50.32,74.09,48.75,75.76,46.96,77.66z"/>
	<path class="st1" d="M46.88,82.26c-1.66-1.55-3.4-3.18-5.26-4.92c3.58-3.56,7.03-6.99,10.42-10.36c-1.78-1.78-3.5-3.52-5.3-5.32
		c-5.07,5.23-10.21,10.53-15.39,15.88c3.58,3.41,7.02,6.69,10.46,9.97C43.47,85.79,45.03,84.17,46.88,82.26z"/>
</g>
<g>
	<path class="st2" d="M120.58,85.8c0.24,0.1,0.5,0.12,0.75,0.07c0.25-0.05,0.48-0.17,0.67-0.36c0.18-0.18,0.31-0.41,0.36-0.67
		c0.05-0.25,0.02-0.52-0.07-0.75c-0.1-0.24-0.27-0.44-0.48-0.58c-0.22-0.14-0.47-0.22-0.72-0.22c-0.17,0-0.34,0.03-0.5,0.1
		c-0.16,0.06-0.3,0.16-0.42,0.28c-0.12,0.12-0.22,0.27-0.28,0.42c-0.07,0.16-0.1,0.33-0.1,0.5c0,0.26,0.08,0.51,0.22,0.72
		C120.13,85.54,120.34,85.71,120.58,85.8z"/>
	<path class="st2" d="M113.07,108.25c15.1,0,27.45-11.8,28.32-26.69v-3.37c-0.82-13.89-11.62-25.1-25.34-26.53h-5.95
		c-14.27,1.49-25.4,13.55-25.4,28.22C84.69,95.54,97.4,108.25,113.07,108.25z M96.14,75.19c-0.03,0.07-0.05,0.15-0.05,0.23v6.74
		l-3.45-2.04l0.08-8.22l5.74-3.22l2.57,1.53l-4.77,4.78C96.21,75.04,96.17,75.11,96.14,75.19z M112.9,96.78L108.12,92l1.74-1.75
		l2.65,2.65c0.1,0.1,0.24,0.16,0.39,0.16s0.29-0.06,0.39-0.16l2.66-2.66l1.74,1.75L112.9,96.78z M129.71,75.19
		c-0.03-0.07-0.08-0.14-0.13-0.2l-4.7-4.7l2.71-1.61l5.75,3.22l0.08,8.22l-3.66,2.18v-6.87C129.75,75.34,129.74,75.26,129.71,75.19z
		 M127.84,64.49l10.13,5.86v5.15l-1.62-1.62v9.01l-5.73,3.25h-0.87v-2.41l4.59-2.73c0.09-0.06,0.17-0.13,0.22-0.23
		c0.05-0.09,0.08-0.2,0.08-0.31l-0.09-8.93c0-0.11-0.03-0.21-0.09-0.31c-0.06-0.09-0.13-0.17-0.23-0.22l-6.37-3.57
		c-0.09-0.05-0.2-0.08-0.31-0.08c-0.11,0-0.21,0.03-0.31,0.09l-3.29,1.95l-1.69-1.69L127.84,64.49z M120.94,68.09l7.59,7.59v10.73
		l-7.33,7.33l-4.36-4.36l0.75-0.75c0.09-0.09,0.15-0.21,0.16-0.34c0.01-0.13-0.02-0.26-0.09-0.36l-4.28-6.28
		c-0.05-0.07-0.12-0.14-0.2-0.18c-0.08-0.04-0.17-0.06-0.26-0.06c-0.09,0-0.18,0.02-0.26,0.06c-0.08,0.04-0.15,0.1-0.2,0.18
		l-4.28,6.28c-0.07,0.11-0.11,0.23-0.09,0.36c0.01,0.13,0.07,0.25,0.16,0.34l0.77,0.77l-4.35,4.35l-7.33-7.33V75.68l7.59-7.59
		H120.94z M88.08,75.5v-5.15l10.14-5.86l5.42,3.13l-1.69,1.69l-3.15-1.87c-0.09-0.06-0.2-0.09-0.31-0.09
		c-0.11,0-0.22,0.03-0.31,0.08l-6.37,3.57c-0.09,0.05-0.17,0.13-0.23,0.22c-0.06,0.09-0.08,0.2-0.09,0.31l-0.09,8.93
		c0,0.11,0.03,0.22,0.08,0.31c0.05,0.09,0.13,0.17,0.22,0.23l4.38,2.6v2.54h-0.65l-5.73-3.25v-9.01L88.08,75.5z"/>
	<path class="st2" d="M103.99,85.9c0.34-0.01,0.66-0.15,0.9-0.4c0.23-0.24,0.37-0.57,0.37-0.91c0-0.34-0.13-0.66-0.37-0.91
		c-0.24-0.24-0.56-0.39-0.9-0.4c-0.34,0.01-0.66,0.15-0.9,0.4c-0.23,0.24-0.37,0.57-0.37,0.91c0,0.34,0.13,0.66,0.37,0.91
		C103.33,85.75,103.65,85.89,103.99,85.9z"/>
	<path class="st3" d="M113.3,92.9c-0.1,0.1-0.24,0.16-0.39,0.16s-0.29-0.06-0.39-0.16l-2.65-2.65L108.12,92l4.78,4.78l4.8-4.79
		l-1.74-1.75L113.3,92.9z"/>
	<path class="st3" d="M95.43,86.14h0.65V83.6L91.71,81c-0.09-0.06-0.17-0.13-0.22-0.23c-0.05-0.09-0.08-0.2-0.08-0.31l0.09-8.93
		c0-0.11,0.03-0.21,0.09-0.31c0.06-0.09,0.13-0.17,0.23-0.22l6.37-3.57c0.09-0.05,0.2-0.08,0.31-0.08c0.11,0,0.21,0.03,0.31,0.09
		l3.15,1.87l1.69-1.69l-5.42-3.13l-10.14,5.86v5.15l1.62-1.62v9.01L95.43,86.14z"/>
	<path class="st3" d="M98.47,68.68l-5.74,3.22l-0.08,8.22l3.45,2.04v-6.74c0-0.08,0.02-0.16,0.05-0.23c0.03-0.07,0.08-0.14,0.13-0.2
		l4.77-4.78L98.47,68.68z"/>
	<path class="st3" d="M127.26,67.44c0.09-0.06,0.2-0.09,0.31-0.09c0.11,0,0.22,0.03,0.31,0.08l6.37,3.57
		c0.09,0.05,0.17,0.13,0.23,0.22c0.06,0.09,0.08,0.2,0.09,0.31l0.09,8.93c0,0.11-0.03,0.22-0.08,0.31
		c-0.05,0.09-0.13,0.17-0.22,0.23l-4.59,2.73v2.41h0.87l5.73-3.25v-9.01l1.62,1.62v-5.15l-10.13-5.86l-5.55,3.2l1.69,1.69
		L127.26,67.44z"/>
	<path class="st3" d="M133.41,80.12l-0.08-8.22l-5.75-3.22l-2.71,1.61l4.7,4.7c0.06,0.06,0.1,0.13,0.13,0.2
		c0.03,0.07,0.05,0.16,0.05,0.23v6.87L133.41,80.12z"/>
	<path class="st3" d="M97.32,86.41l7.33,7.33l4.35-4.35l-0.77-0.77c-0.09-0.09-0.15-0.21-0.16-0.34c-0.01-0.13,0.02-0.26,0.09-0.36
		l4.28-6.28c0.05-0.07,0.12-0.14,0.2-0.18c0.08-0.04,0.17-0.06,0.26-0.06c0.09,0,0.18,0.02,0.26,0.06c0.08,0.04,0.15,0.1,0.2,0.18
		l4.28,6.28c0.07,0.11,0.11,0.23,0.09,0.36c-0.01,0.13-0.07,0.25-0.16,0.34l-0.75,0.75l4.36,4.36l7.33-7.33V75.68l-7.59-7.59h-16.03
		l-7.59,7.59V86.41z M119.87,84.1c0.06-0.16,0.16-0.3,0.28-0.42c0.12-0.12,0.27-0.22,0.42-0.28c0.16-0.06,0.33-0.1,0.5-0.1
		c0.26,0,0.51,0.08,0.72,0.22c0.21,0.14,0.38,0.35,0.48,0.58c0.1,0.24,0.12,0.5,0.07,0.75c-0.05,0.25-0.17,0.48-0.36,0.67
		c-0.18,0.18-0.41,0.31-0.67,0.36c-0.25,0.05-0.52,0.02-0.75-0.07c-0.24-0.1-0.44-0.27-0.58-0.48c-0.14-0.22-0.22-0.47-0.22-0.72
		C119.77,84.43,119.8,84.26,119.87,84.1z M103.1,83.69c0.24-0.24,0.56-0.39,0.9-0.4c0.34,0.01,0.66,0.15,0.9,0.4
		c0.23,0.24,0.37,0.57,0.37,0.91c0,0.34-0.13,0.66-0.37,0.91c-0.24,0.24-0.56,0.39-0.9,0.4c-0.34-0.01-0.66-0.15-0.9-0.4
		c-0.23-0.24-0.37-0.57-0.37-0.91C102.73,84.26,102.86,83.94,103.1,83.69z"/>
</g>
</svg>
