<?xml version="1.0" encoding="utf-8"?>
<!-- Generator: Adobe Illustrator 25.4.1, SVG Export Plug-In . SVG Version: 6.00 Build 0)  -->
<svg version="1.1" id="Layer_1" xmlns:v="https://vecta.io/nano"
	 xmlns="http://www.w3.org/2000/svg" xmlns:xlink="http://www.w3.org/1999/xlink" x="0px" y="0px" viewBox="0 0 160 160"
	 style="enable-background:new 0 0 160 160;" xml:space="preserve">
<style type="text/css">
	.st0{clip-path:url(#SVGID_00000100382947134602247790000000882277519843936428_);}
	.st1{fill:#4B46BD;}
	.st2{fill:#FBFBFC;}
	.st3{fill:#2775CA;}
	.st4{fill:#FFFFFF;}
</style>
<g>
	<defs>
		<circle id="SVGID_1_" cx="47" cy="80" r="28.35"/>
	</defs>
	<clipPath id="SVGID_00000078029426128798848950000013205412143423616685_">
		<use xlink:href="#SVGID_1_"  style="overflow:visible;"/>
	</clipPath>
	<g style="clip-path:url(#SVGID_00000078029426128798848950000013205412143423616685_);">
		<path class="st1" d="M18.65,51.65c18.89,0,37.78,0,56.69,0c0,18.88,0,37.76,0,56.69c-18.88,0-37.79,0-56.69,0
			C18.65,89.47,18.65,70.57,18.65,51.65z M47.05,98.3c5.17-5.34,10.29-10.63,15.44-15.96c-3.62-3.45-7.06-6.72-10.51-10.01
			c-1.66,1.76-3.23,3.43-5.02,5.33c1.63,1.52,3.37,3.15,5.34,4.99c-3.59,3.54-7.06,6.97-10.49,10.36
			C43.55,94.77,45.24,96.48,47.05,98.3z M46.88,82.26c-1.66-1.55-3.4-3.18-5.26-4.92c3.58-3.56,7.03-6.99,10.42-10.36
			c-1.78-1.78-3.5-3.52-5.3-5.32c-5.07,5.23-10.21,10.53-15.39,15.88c3.58,3.41,7.02,6.69,10.46,9.97
			C43.47,85.79,45.03,84.17,46.88,82.26z"/>
		<path class="st2" d="M47.05,98.3c-1.81-1.83-3.51-3.53-5.25-5.29c3.43-3.39,6.9-6.82,10.49-10.36c-1.97-1.84-3.71-3.47-5.34-4.99
			c1.79-1.9,3.36-3.57,5.02-5.33c3.45,3.29,6.89,6.56,10.51,10.01C57.34,87.67,52.22,92.96,47.05,98.3z"/>
		<path class="st2" d="M46.88,82.26c-1.85,1.91-3.41,3.54-5.07,5.25c-3.44-3.28-6.89-6.56-10.46-9.97
			c5.19-5.35,10.33-10.66,15.39-15.88c1.8,1.81,3.53,3.54,5.3,5.32c-3.39,3.37-6.84,6.8-10.42,10.36
			C43.48,79.07,45.22,80.71,46.88,82.26z"/>
	</g>
</g>
<path class="st3" d="M112.98,108.29c15.68,0,28.29-12.61,28.29-28.29s-12.61-28.29-28.29-28.29S84.69,64.32,84.69,80
	S97.3,108.29,112.98,108.29z"/>
<path class="st4" d="M120.76,84.48c0-4.13-2.48-5.54-7.43-6.13c-3.54-0.47-4.24-1.41-4.24-3.06s1.18-2.71,3.54-2.71
	c2.12,0,3.3,0.71,3.89,2.48c0.12,0.35,0.47,0.59,0.83,0.59h1.89c0.47,0,0.83-0.35,0.83-0.82V74.7c-0.47-2.59-2.59-4.6-5.3-4.83
	v-2.83c0-0.47-0.35-0.83-0.94-0.94h-1.77c-0.47,0-0.83,0.35-0.94,0.94v2.71c-3.54,0.47-5.78,2.83-5.78,5.78
	c0,3.89,2.36,5.42,7.31,6.01c3.3,0.59,4.36,1.3,4.36,3.18c0,1.89-1.65,3.18-3.89,3.18c-3.06,0-4.13-1.3-4.48-3.06
	c-0.12-0.47-0.47-0.71-0.82-0.71h-2c-0.47,0-0.82,0.35-0.82,0.83v0.12c0.47,2.95,2.36,5.07,6.25,5.66v2.83
	c0,0.47,0.35,0.82,0.94,0.94h1.77c0.47,0,0.83-0.35,0.94-0.94v-2.83C118.4,90.14,120.76,87.66,120.76,84.48L120.76,84.48z"/>
<path class="st4" d="M106.97,96.85c-9.19-3.3-13.91-13.55-10.49-22.63c1.77-4.95,5.66-8.72,10.49-10.49
	c0.47-0.24,0.71-0.59,0.71-1.18v-1.65c0-0.47-0.24-0.83-0.71-0.94c-0.12,0-0.35,0-0.47,0.12c-11.2,3.54-17.33,15.44-13.79,26.64
	c2.12,6.6,7.19,11.67,13.79,13.79c0.47,0.24,0.94,0,1.06-0.47c0.12-0.12,0.12-0.24,0.12-0.47v-1.65
	C107.68,97.56,107.32,97.09,106.97,96.85z M119.46,60.08c-0.47-0.24-0.94,0-1.06,0.47c-0.12,0.12-0.12,0.24-0.12,0.47v1.65
	c0,0.47,0.35,0.94,0.71,1.18c9.19,3.3,13.91,13.55,10.49,22.63c-1.77,4.95-5.66,8.72-10.49,10.49c-0.47,0.24-0.71,0.59-0.71,1.18
	v1.65c0,0.47,0.24,0.83,0.71,0.94c0.12,0,0.35,0,0.47-0.12c11.2-3.54,17.33-15.44,13.79-26.64
	C131.13,67.27,125.94,62.2,119.46,60.08L119.46,60.08z"/>
</svg>
