<?xml version="1.0" encoding="UTF-8" standalone="no"?>
<svg
   xmlns:dc="http://purl.org/dc/elements/1.1/"
   xmlns:cc="http://creativecommons.org/ns#"
   xmlns:rdf="http://www.w3.org/1999/02/22-rdf-syntax-ns#"
   xmlns:svg="http://www.w3.org/2000/svg"
   xmlns="http://www.w3.org/2000/svg"
   xmlns:sodipodi="http://sodipodi.sourceforge.net/DTD/sodipodi-0.dtd"
   xmlns:inkscape="http://www.inkscape.org/namespaces/inkscape"
   version="1.1"
   id="svg2"
   xml:space="preserve"
   width="1333.3333"
   height="1066.6667"
   viewBox="0 0 1333.3333 1066.6667"
   sodipodi:docname="Moonriver.ai"><metadata
     id="metadata8"><rdf:RDF><cc:Work
         rdf:about=""><dc:format>image/svg+xml</dc:format><dc:type
           rdf:resource="http://purl.org/dc/dcmitype/StillImage" /></cc:Work></rdf:RDF></metadata><defs
     id="defs6"><clipPath
       clipPathUnits="userSpaceOnUse"
       id="clipPath18"><path
         d="M 0,800 H 1000 V 0 H 0 Z"
         id="path16" /></clipPath></defs><sodipodi:namedview
     pagecolor="#ffffff"
     bordercolor="#666666"
     borderopacity="1"
     objecttolerance="10"
     gridtolerance="10"
     guidetolerance="10"
     inkscape:pageopacity="0"
     inkscape:pageshadow="2"
     inkscape:window-width="640"
     inkscape:window-height="480"
     id="namedview4" /><g
     id="g10"
     inkscape:groupmode="layer"
     inkscape:label="Moonriver"
     transform="matrix(1.3333333,0,0,-1.3333333,0,1066.6667)"><g
       id="g12"><g
         id="g14"
         clip-path="url(#clipPath18)"><g
           id="g20"
           transform="translate(387.7827,424.4067)"><path
             d="m 0,0 c -3.268,0.063 -6.485,-0.811 -9.271,-2.518 -2.657,-1.65 -4.863,-3.934 -6.419,-6.647 -1.628,-2.865 -2.623,-6.046 -2.917,-9.328 -0.348,-3.614 0.078,-7.261 1.248,-10.698 0.507,-1.517 1.103,-3.003 1.783,-4.45 0.751,-1.618 1.71,-3.131 2.853,-4.501 1.173,-1.411 2.598,-2.593 4.201,-3.487 1.774,-0.974 3.773,-1.466 5.798,-1.427 3.265,-0.036 6.465,0.916 9.179,2.731 2.658,1.741 4.86,4.093 6.419,6.862 1.624,2.939 2.597,6.194 2.852,9.542 0.311,3.66 -0.134,7.345 -1.305,10.827 -0.496,1.513 -1.072,2.998 -1.726,4.45 -0.691,1.54 -1.609,2.969 -2.724,4.236 C 8.82,-3.104 7.43,-2.031 5.877,-1.248 4.058,-0.369 2.056,0.066 0.036,0.021 Z m -0.356,18.871 c 3.17,-0.041 6.329,-0.402 9.428,-1.077 3.538,-0.738 6.956,-1.965 10.156,-3.645 3.374,-1.759 6.438,-4.057 9.072,-6.803 2.825,-2.966 4.927,-6.544 6.14,-10.456 0.749,-2.389 1.253,-4.848 1.505,-7.339 0.303,-2.866 0.35,-5.754 0.143,-8.629 0.924,-0.805 1.994,-1.425 3.152,-1.826 1.063,-0.353 2.175,-0.533 3.295,-0.535 1.67,0.028 3.306,0.469 4.764,1.284 1.722,0.938 3.332,2.067 4.8,3.366 1.621,1.42 3.13,2.963 4.515,4.615 1.426,1.711 2.781,3.43 4.001,5.142 1.219,1.711 2.31,3.344 3.259,4.878 0.948,1.533 1.726,2.853 2.339,3.915 0.396,0.503 1.018,0.771 1.655,0.714 1.25,-0.097 2.42,-0.65 3.288,-1.555 1.251,-1.188 2.165,-2.687 2.646,-4.344 0.617,-2.082 0.744,-4.279 0.37,-6.418 -0.361,-2.425 -1.669,-4.962 -3.922,-7.61 -1.179,-1.855 -2.522,-3.994 -4.03,-6.419 -1.511,-2.426 -3.224,-4.721 -5.12,-6.861 -1.855,-2.104 -3.991,-3.942 -6.348,-5.463 -2.3,-1.494 -4.988,-2.277 -7.731,-2.254 -1.999,0.01 -3.986,0.298 -5.905,0.856 -2.241,0.677 -4.395,1.613 -6.419,2.789 -1.315,-3.897 -3.191,-7.579 -5.57,-10.934 -2.367,-3.307 -5.298,-6.174 -8.658,-8.466 -3.615,-2.447 -7.594,-4.31 -11.789,-5.519 -4.844,-1.383 -9.863,-2.053 -14.899,-1.99 -2.581,0.077 -5.142,0.474 -7.624,1.184 -3.212,0.872 -6.286,2.188 -9.136,3.908 -3.213,1.932 -6.117,4.336 -8.616,7.132 -2.759,3.093 -4.826,6.74 -6.062,10.697 -1.025,3.348 -1.667,6.8 -1.911,10.292 -0.331,4.128 -0.21,8.28 0.364,12.381 0.606,4.335 1.726,8.583 3.337,12.653 1.637,4.161 4.039,7.978 7.082,11.254 3.275,3.464 7.24,6.203 11.64,8.038 4.66,2.03 10.256,3.045 16.789,3.045"
             style="fill:#f2b705;fill-opacity:1;fill-rule:nonzero;stroke:none"
             id="path22" /></g><g
           id="g24"
           transform="translate(220.4956,373.2275)"><path
             d="m 0,0 c -0.542,6.048 -1.129,13.047 -1.762,20.996 -0.632,7.95 -1.262,16.271 -1.889,24.962 -0.638,8.687 -1.263,17.424 -1.876,26.21 -0.614,8.787 -1.139,17.015 -1.577,24.684 -2.329,-7.175 -4.69,-14.383 -7.082,-21.624 -2.391,-7.241 -4.649,-14.121 -6.775,-20.64 -2.144,-6.505 -4.129,-12.393 -5.955,-17.666 -1.826,-5.273 -3.302,-9.528 -4.429,-12.766 -1.189,-2.177 -2.404,-4.251 -3.644,-6.219 -1.125,-1.823 -2.393,-3.551 -3.795,-5.17 -1.159,-1.374 -2.508,-2.576 -4.008,-3.567 -1.267,-0.848 -2.754,-1.306 -4.279,-1.319 -1.732,-0.063 -3.446,0.376 -4.935,1.263 -1.334,0.852 -2.237,2.237 -2.482,3.8 -0.064,0.35 -0.114,0.714 -0.143,0.999 -0.021,0.337 0.003,0.675 0.071,1.005 -2.377,9.986 -4.649,20.058 -6.817,30.219 -2.168,10.16 -4.218,20.162 -6.148,30.004 l -1.355,6.961 c -0.45,2.325 -0.856,4.607 -1.227,6.861 -1.583,-6.333 -3.364,-12.909 -5.342,-19.727 -1.978,-6.819 -4.117,-13.551 -6.419,-20.198 -2.296,-6.656 -4.745,-13.056 -7.345,-19.199 -2.4,-5.736 -5.117,-11.334 -8.138,-16.767 -2.498,-4.546 -5.42,-8.844 -8.73,-12.838 -3.004,-3.552 -6.057,-6.029 -9.157,-7.432 -2.325,-1.056 -4.731,-1.922 -7.196,-2.589 -1.843,-0.495 -3.74,-0.761 -5.649,-0.791 -2.534,0 -4.514,0.511 -5.94,1.533 -1.32,0.859 -2.246,2.205 -2.575,3.744 -0.312,1.908 0.098,3.863 1.148,5.485 1.257,2.021 3.14,3.577 5.363,4.429 2.991,1.269 5.982,4.065 8.972,8.387 3.374,4.999 6.321,10.275 8.808,15.769 2.853,6.181 5.627,13.075 8.323,20.682 2.696,7.608 5.225,15.308 7.588,23.101 2.378,7.802 4.567,15.448 6.569,22.936 2.002,7.489 3.744,14.257 5.228,20.305 1.497,6.048 2.715,11.095 3.651,15.141 0.937,4.046 1.522,6.559 1.755,7.538 0.4,1.942 1.547,3.648 3.195,4.75 1.521,0.97 3.289,1.482 5.092,1.477 2.525,0 4.415,-0.713 5.706,-2.062 1.291,-1.347 2.218,-3.815 2.903,-7.331 1.426,-4.432 2.71,-8.596 3.851,-12.495 1.141,-3.899 2.254,-7.907 3.338,-12.025 1.074,-4.112 2.127,-8.544 3.159,-13.294 1.032,-4.75 2.147,-10.217 3.345,-16.403 0.865,-4.436 1.728,-9.324 2.589,-14.663 0.86,-5.34 1.932,-11.317 3.216,-17.93 5.463,15.324 10.308,28.841 14.535,40.552 4.227,11.711 7.983,21.52 11.269,29.426 3.271,7.917 6.169,13.896 8.694,17.937 2.524,4.042 4.768,6.062 6.732,6.062 h 0.713 c 0.208,-10e-4 0.416,0.016 0.621,0.05 0.207,0.037 0.417,0.056 0.628,0.057 1.683,0 3.223,-1.055 4.621,-3.166 1.547,-2.516 2.591,-5.309 3.074,-8.223 0.385,-3.452 0.796,-7.731 1.234,-12.838 0.437,-5.106 0.882,-10.748 1.333,-16.924 0.476,-6.157 0.951,-12.645 1.427,-19.463 0.475,-6.818 0.951,-13.586 1.426,-20.305 0.475,-6.718 0.951,-13.241 1.427,-19.57 0.475,-6.328 0.972,-12.058 1.49,-17.187 0.04,-0.94 0.152,-1.874 0.335,-2.796 l 0.564,-2.904 c 0.356,-1.825 0.751,-3.67 1.183,-5.534 0.429,-1.868 0.821,-3.708 1.177,-5.541 0.414,-2.111 0.723,-4.251 0.927,-6.419 0.226,-1.954 0.017,-3.934 -0.613,-5.799 C 19.32,-5.857 18.02,-7.353 16.332,-8.273 14.506,-9.362 11.799,-9.909 8.209,-9.914 6.332,-9.928 4.536,-9.15 3.259,-7.774 1.814,-6.319 0.728,-3.728 0,0"
             style="fill:#f2b705;fill-opacity:1;fill-rule:nonzero;stroke:none"
             id="path26" /></g><g
           id="g28"
           transform="translate(448.0049,430.0835)"><path
             d="m 0,0 c 0.452,3.029 1.479,5.285 3.081,6.769 1.44,1.415 3.374,2.213 5.392,2.225 1.82,-0.064 3.572,-0.714 4.992,-1.855 1.774,-1.369 3.047,-3.284 3.623,-5.449 0.289,-0.965 0.487,-1.957 0.592,-2.96 0.118,-1.128 0.085,-2.268 -0.099,-3.387 1.15,2.299 2.72,4.362 4.628,6.083 2.298,2.17 4.851,4.052 7.603,5.606 2.939,1.68 6.047,3.048 9.271,4.08 3.149,1.034 6.442,1.569 9.757,1.583 3.497,0.038 6.936,-0.895 9.934,-2.696 2.982,-1.797 5.122,-4.85 6.419,-9.157 0.78,-2.578 1.213,-5.247 1.291,-7.938 0.079,-2.758 -0.059,-5.516 -0.414,-8.252 -0.357,-2.726 -0.874,-5.429 -1.547,-8.094 -0.661,-2.649 -1.36,-5.136 -2.096,-7.461 -0.738,-2.325 -1.406,-4.465 -2.005,-6.419 -0.613,-1.939 -1.063,-3.565 -1.362,-4.813 -0.552,-1.238 -0.604,-2.642 -0.143,-3.916 0.179,-0.575 0.515,-1.089 0.971,-1.484 0.51,-0.436 1.168,-0.663 1.84,-0.634 0.536,0.007 1.07,0.062 1.597,0.164 0.733,0.182 1.399,0.565 1.925,1.105 3.398,1.483 6.662,3.253 9.757,5.292 3.162,2.067 6.205,4.311 9.115,6.719 2.69,2.229 5.249,4.61 7.666,7.132 1.969,2.022 3.808,4.166 5.506,6.419 0.352,0.454 0.807,0.819 1.327,1.062 0.449,0.199 0.935,0.306 1.426,0.314 1.192,-0.012 2.328,-0.509 3.145,-1.377 0.965,-0.972 1.669,-2.171 2.047,-3.487 0.673,-2.38 0.749,-4.888 0.222,-7.303 -0.606,-2.838 -2.006,-5.446 -4.037,-7.517 -3.028,-2.887 -5.808,-5.53 -8.337,-7.931 -2.514,-2.391 -5.161,-4.637 -7.931,-6.725 -2.894,-2.168 -5.948,-4.115 -9.136,-5.821 -3.885,-2.03 -7.943,-3.712 -12.124,-5.027 -1.471,-0.523 -2.974,-0.947 -4.5,-1.269 -1.296,-0.271 -2.615,-0.412 -3.938,-0.421 -3.637,0 -6.613,1.041 -8.929,3.123 -2.316,2.083 -4.044,4.993 -5.185,8.729 -0.15,0.492 -0.278,0.971 -0.385,1.427 -0.107,0.457 -0.214,0.97 -0.314,1.533 -0.542,2.359 -0.711,4.786 -0.499,7.196 0.21,2.704 0.594,5.391 1.148,8.045 0.566,2.753 1.225,5.488 1.976,8.202 0.751,2.715 1.421,5.29 2.011,7.724 0.599,2.432 1.049,4.607 1.362,6.511 0.321,1.537 0.292,3.127 -0.085,4.651 -0.309,1.038 -0.896,1.973 -1.698,2.702 -0.808,0.741 -1.871,1.14 -2.966,1.113 -4.126,0.094 -8.142,-1.338 -11.276,-4.022 -3.235,-2.809 -5.957,-6.159 -8.045,-9.899 -2.256,-3.967 -4.154,-8.128 -5.67,-12.432 -1.55,-4.374 -2.896,-8.289 -4.037,-11.746 -0.679,-2.445 -1.173,-4.939 -1.476,-7.46 -0.297,-2.491 -0.727,-4.965 -1.291,-7.41 -0.429,-2.041 -1.252,-3.98 -2.425,-5.705 -1.077,-1.52 -2.788,-2.275 -5.121,-2.275 -2.336,-0.025 -4.6,0.805 -6.368,2.332 -1.806,1.482 -3.129,3.468 -3.802,5.706 -0.371,1.198 -0.478,3.137 -0.335,5.819 0.143,2.682 0.428,5.784 0.856,9.314 0.428,3.531 0.977,7.318 1.626,11.412 0.649,4.093 1.305,8.073 1.975,12.06 0.671,3.986 1.327,7.745 1.969,11.268 C -0.884,-5.398 -0.342,-2.496 0,0"
             style="fill:#f2b705;fill-opacity:1;fill-rule:nonzero;stroke:none"
             id="path30" /></g><g
           id="g32"
           transform="translate(632.666,457.3848)"><path
             d="m 0,0 c -0.497,1.616 -0.721,3.303 -0.664,4.992 0.034,1.639 0.438,3.248 1.185,4.707 0.766,1.442 1.91,2.647 3.308,3.488 1.771,0.994 3.785,1.471 5.813,1.376 3.975,0 6.997,-0.791 9.065,-2.375 1.997,-1.498 3.463,-3.594 4.187,-5.983 0.425,-1.442 0.623,-2.941 0.584,-4.443 10e-4,-1.55 -0.319,-3.082 -0.942,-4.501 -0.636,-1.406 -1.663,-2.599 -2.959,-3.437 -1.639,-0.991 -3.536,-1.47 -5.449,-1.377 -4.279,0 -7.475,0.69 -9.585,2.069 C 2.475,-4.196 0.881,-2.272 0,0 m -4.059,-23.813 c 0.375,1.691 1.341,3.193 2.725,4.236 1.262,0.852 2.756,1.295 4.279,1.269 2.724,-0.038 5.364,-0.947 7.532,-2.596 2.317,-1.592 4.026,-3.923 4.849,-6.611 0.129,-0.635 0.236,-1.27 0.328,-1.904 0.087,-0.635 0.056,-1.281 -0.092,-1.905 -0.4,-1.84 -0.713,-3.387 -0.942,-4.657 -0.228,-1.269 -0.434,-2.453 -0.62,-3.566 -0.186,-1.113 -0.35,-2.14 -0.507,-3.231 -0.156,-1.091 -0.349,-2.325 -0.585,-3.808 -0.285,-1.764 -0.625,-3.687 -1.019,-5.77 -0.393,-2.075 -0.713,-4.215 -0.977,-6.418 -0.254,-2.131 -0.388,-4.274 -0.399,-6.419 -0.027,-1.969 0.243,-3.931 0.798,-5.82 0.585,-1.912 1.426,-3.16 2.539,-3.758 1.316,-0.646 2.772,-0.955 4.236,-0.899 1.949,0.005 3.872,0.439 5.635,1.27 1.896,0.882 3.684,1.984 5.327,3.28 1.762,1.38 3.392,2.92 4.871,4.6 1.536,1.726 2.943,3.473 4.223,5.242 1.279,1.769 2.441,3.462 3.487,5.078 0.922,1.4 1.768,2.847 2.539,4.336 0.749,1.222 2.068,1.98 3.502,2.011 1.369,-0.054 2.656,-0.665 3.565,-1.69 1.187,-1.215 2.05,-2.708 2.511,-4.343 0.498,-1.681 0.635,-3.448 0.4,-5.185 -0.263,-1.907 -1.05,-3.701 -2.275,-5.185 -2.378,-3.666 -4.874,-7.175 -7.489,-10.527 -2.511,-3.243 -5.345,-6.223 -8.458,-8.894 -2.896,-2.492 -6.121,-4.572 -9.586,-6.183 -3.425,-1.566 -7.152,-2.363 -10.919,-2.332 -5.167,-0.122 -10.237,1.418 -14.464,4.393 -4.089,2.924 -7.079,7.491 -8.972,13.7 -0.963,3.088 -1.492,6.295 -1.568,9.529 -0.061,3.02 0.081,6.042 0.428,9.043 0.342,2.929 0.784,5.751 1.326,8.466 0.522,2.57 0.898,5.168 1.127,7.781 0.064,0.913 0.228,2.325 0.506,4.229 0.278,1.905 0.593,3.851 0.956,5.827 0.351,2.33 0.746,4.8 1.183,7.411"
             style="fill:#f2b705;fill-opacity:1;fill-rule:nonzero;stroke:none"
             id="path34" /></g><g
           id="g36"
           transform="translate(767.0029,389.5527)"><path
             d="m 0,0 c -3.643,-3.814 -7.879,-7.013 -12.545,-9.472 -4.45,-2.296 -9.797,-3.444 -16.04,-3.444 -2.16,0.02 -4.301,0.416 -6.325,1.17 -3.017,1.169 -5.947,2.547 -8.773,4.122 -2.653,-6.134 -5.777,-10.788 -9.372,-13.964 -3.523,-3.153 -8.109,-4.855 -12.837,-4.765 -2.493,0.017 -4.963,0.465 -7.303,1.327 -2.534,0.917 -4.892,2.257 -6.975,3.965 -2.296,1.886 -4.305,4.096 -5.962,6.562 -1.886,2.795 -3.329,5.865 -4.279,9.101 -1.342,4.473 -2.277,9.058 -2.796,13.7 -0.57,4.906 -0.915,9.687 -1.034,14.342 -0.119,4.655 -0.146,8.958 -0.078,12.909 0.061,3.951 0.113,7.092 0.156,9.421 0.475,2.962 1.558,5.102 3.245,6.419 1.567,1.261 3.516,1.952 5.527,1.961 0.97,-0.015 1.932,-0.176 2.853,-0.478 1.025,-0.317 2.008,-0.76 2.925,-1.319 0.91,-0.555 1.74,-1.231 2.467,-2.011 0.681,-0.725 1.193,-1.592 1.498,-2.539 0.222,-0.646 0.291,-1.335 0.2,-2.011 0,-3.391 -0.093,-7.078 -0.279,-11.062 -0.185,-3.985 -0.283,-7.988 -0.293,-12.01 0,-4.023 0.153,-7.955 0.457,-11.797 0.268,-3.569 0.916,-7.101 1.933,-10.533 0.219,-0.67 0.486,-1.323 0.799,-1.954 0.385,-0.814 0.799,-1.591 1.227,-2.333 0.4,-0.687 0.878,-1.327 1.426,-1.904 0.335,-0.436 0.83,-0.721 1.376,-0.792 1.783,0 3.462,1.023 5.035,3.067 1.886,2.618 3.437,5.462 4.615,8.466 1.627,2.736 2.894,5.669 3.773,8.729 0.998,3.352 1.868,6.792 2.61,10.32 0.742,3.528 1.431,7.004 2.068,10.427 0.633,3.414 1.346,6.483 2.139,9.207 0.612,2.308 1.548,4.518 2.783,6.562 1.069,1.654 2.429,2.482 4.079,2.482 2.573,0.098 5.063,-0.925 6.825,-2.803 1.766,-1.918 3.066,-4.217 3.802,-6.718 0.86,-2.628 1.232,-5.391 1.097,-8.152 -0.199,-2.6 -0.677,-5.17 -1.425,-7.667 -0.778,-2.646 -1.748,-5.577 -2.932,-8.787 -1.184,-3.209 -2.368,-7.039 -3.565,-11.482 1.565,-1.491 3.665,-2.293 5.826,-2.226 2.489,0.004 4.967,0.325 7.375,0.956 2.443,0.634 4.809,1.538 7.052,2.696 2.293,1.196 4.462,2.615 6.477,4.236 2.073,1.661 4.012,3.483 5.798,5.449 0.732,0.599 1.643,0.935 2.589,0.956 1.37,-0.058 2.657,-0.671 3.566,-1.698 C 1.966,15.416 2.826,13.926 3.288,12.295 3.876,10.283 3.96,8.157 3.53,6.104 3.05,3.74 1.811,1.597 0,0"
             style="fill:#f2b705;fill-opacity:1;fill-rule:nonzero;stroke:none"
             id="path38" /></g><g
           id="g40"
           transform="translate(790.96,428.2793)"><path
             d="m 0,0 c -0.314,0.066 -0.635,0.102 -0.956,0.107 h -0.928 c -2.372,0.056 -4.72,-0.489 -6.825,-1.584 -1.918,-1.043 -3.603,-2.467 -4.949,-4.186 -1.386,-1.773 -2.484,-3.754 -3.252,-5.869 -0.787,-2.13 -1.446,-4.304 -1.976,-6.512 -0.489,-2.037 -0.837,-4.105 -1.041,-6.19 -0.185,-1.974 -0.281,-3.638 -0.286,-4.993 2.119,1.341 4.168,2.789 6.141,4.336 2.078,1.626 4.022,3.179 5.834,4.658 1.811,1.478 3.376,2.819 4.693,4.022 1.313,1.198 2.249,2.009 2.81,2.432 2.482,1.973 4.042,3.825 4.678,5.556 0.621,1.417 0.754,2.999 0.378,4.5 C 4.029,-2.71 3.416,-1.819 2.574,-1.184 1.838,-0.583 0.967,-0.17 0.035,0.021 Z m -0.714,14.606 c 5.706,0 10.392,-1.412 14.058,-4.236 3.786,-2.984 6.519,-7.099 7.802,-11.746 0.904,-3.005 1.101,-6.178 0.578,-9.272 -0.524,-3.248 -2.123,-6.547 -4.8,-9.899 -2.677,-3.352 -6.59,-6.773 -11.739,-10.264 -5.15,-3.494 -11.849,-7.002 -20.098,-10.526 0.985,-2.069 2.621,-3.761 4.657,-4.814 2.358,-1.219 4.985,-1.821 7.638,-1.747 3.284,0.02 6.549,0.5 9.699,1.426 3.295,0.947 6.503,2.168 9.593,3.652 3.081,1.483 6.038,3.088 8.872,4.814 2.834,1.726 5.37,3.366 7.61,4.921 2.235,1.555 4.089,2.896 5.563,4.023 0.957,0.776 1.962,1.491 3.01,2.139 0.412,0.373 0.921,0.62 1.468,0.713 0.452,0.063 0.907,0.096 1.363,0.1 0.782,0.009 1.553,-0.19 2.232,-0.578 0.658,-0.383 1.267,-0.845 1.812,-1.376 0.513,-0.498 0.948,-1.07 1.291,-1.698 0.27,-0.489 0.494,-1.003 0.67,-1.533 0.217,-0.746 0.381,-1.506 0.493,-2.275 0.096,-1.046 -0.122,-2.097 -0.628,-3.017 -0.806,-0.997 -1.665,-1.949 -2.576,-2.852 -1.483,-1.555 -3.444,-3.391 -5.883,-5.506 -2.787,-2.386 -5.694,-4.628 -8.708,-6.719 -3.492,-2.442 -7.164,-4.619 -10.984,-6.512 -4.09,-2.027 -8.358,-3.672 -12.752,-4.913 -4.555,-1.308 -9.273,-1.969 -14.013,-1.962 -4.029,-0.018 -8.016,0.811 -11.704,2.433 -3.704,1.637 -7.124,3.851 -10.134,6.56 -3.102,2.786 -5.796,5.993 -8.002,9.529 -2.235,3.523 -3.986,7.33 -5.207,11.318 -0.953,3.24 -1.394,6.609 -1.305,9.985 0.067,3.712 0.638,7.397 1.697,10.955 1.123,3.775 2.737,7.386 4.8,10.741 4.392,7.248 11.124,12.783 19.085,15.69 4.659,1.692 9.587,2.52 14.542,2.446"
             style="fill:#f2b705;fill-opacity:1;fill-rule:nonzero;stroke:none"
             id="path42" /></g><g
           id="g44"
           transform="translate(622.6094,414.4717)"><path
             d="M 0,0 C 1.841,-1.534 2.889,-3.816 2.853,-6.212 2.814,-7.778 2.44,-9.317 1.755,-10.727 c -1.954,-3.979 -6.255,-7.309 -9.792,-9.984 -3.538,-2.675 -9.008,-4.037 -13.28,-4.037 -3.207,-0.079 -6.323,1.077 -8.702,3.231 -2.377,2.144 -3.565,5.047 -3.565,8.708 0.009,2.208 0.13,4.415 0.363,6.611 0.196,1.18 0.32,2.371 0.371,3.567 0.054,0.706 -0.177,1.404 -0.641,1.939 -0.409,0.418 -0.971,0.65 -1.555,0.642 -1.712,0 -4.035,-1.802 -6.968,-5.406 -3.437,-4.422 -6.383,-9.205 -8.787,-14.264 -2.958,-6.001 -5.345,-12.266 -7.132,-18.714 -1.35,-5.164 -2.877,-8.603 -4.579,-10.32 -1.702,-1.717 -4.511,-2.577 -8.429,-2.582 -4.641,0 -7.908,2.14 -9.799,6.419 -1.893,4.279 -2.844,11.174 -2.854,20.683 -0.071,13.574 2.222,27.058 6.776,39.846 0.901,2.87 2.825,5.309 5.406,6.854 2.506,1.455 6.016,2.182 10.534,2.182 2.439,0 4.149,-0.271 5.128,-0.813 0.979,-0.542 1.469,-1.562 1.469,-3.06 0,-1.725 -0.917,-5.598 -2.753,-11.617 -1.222,-4.28 -2.199,-8.043 -2.931,-11.29 -0.841,-3.941 -1.453,-7.928 -1.833,-11.939 4.031,9.252 8.549,16.781 13.551,22.587 5.002,5.805 9.887,9.944 14.656,12.417 4.754,2.472 9.091,3.711 13.009,3.715 3.537,0 6.254,-0.889 8.151,-2.667 1.898,-1.778 2.848,-4.394 2.853,-7.845 0,-2.04 -0.673,-5.91 -2.018,-11.611 h 1.655 C -7.281,2.503 -1.896,1.669 0,0"
             style="fill:#f2b705;fill-opacity:1;fill-rule:nonzero;stroke:none"
             id="path46" /></g><g
           id="g48"
           transform="translate(913.3506,414.5786)"><path
             d="m 0,0 c 1.838,-1.535 2.886,-3.817 2.854,-6.212 -0.042,-1.565 -0.417,-3.104 -1.099,-4.514 -1.961,-3.98 -6.255,-7.317 -9.8,-9.985 -3.544,-2.667 -8.978,-4.08 -13.258,-4.08 -3.207,-0.079 -6.322,1.079 -8.701,3.231 -2.377,2.149 -3.565,5.052 -3.565,8.708 0.007,2.209 0.131,4.416 0.37,6.612 0.191,1.18 0.312,2.371 0.364,3.566 0.054,0.704 -0.178,1.401 -0.642,1.932 -0.408,0.42 -0.969,0.655 -1.555,0.649 -1.711,0 -4.031,-1.802 -6.96,-5.406 -3.442,-4.42 -6.391,-9.203 -8.794,-14.263 -2.958,-5.999 -5.346,-12.262 -7.132,-18.707 -1.341,-5.164 -2.867,-8.607 -4.579,-10.327 -1.712,-1.722 -4.522,-2.582 -8.43,-2.582 -4.636,0 -7.902,2.139 -9.8,6.419 -1.896,4.279 -2.847,11.172 -2.852,20.682 -0.068,13.575 2.226,27.058 6.782,39.846 0.901,2.868 2.822,5.307 5.4,6.854 2.505,1.455 6.016,2.168 10.534,2.139 2.438,0 4.148,-0.268 5.127,-0.805 0.977,-0.535 1.469,-1.562 1.469,-3.067 0,-1.716 -0.915,-5.587 -2.746,-11.611 -1.226,-4.279 -2.203,-8.042 -2.93,-11.29 -0.847,-3.94 -1.459,-7.926 -1.833,-11.938 4.027,9.252 8.544,16.781 13.55,22.587 5.007,5.805 9.89,9.944 14.649,12.416 4.755,2.477 9.091,3.713 13.009,3.708 3.566,0 6.255,-0.884 8.152,-2.66 1.896,-1.776 2.853,-4.379 2.853,-7.845 0,-2.039 -0.67,-5.91 -2.011,-11.611 h 1.647 C -7.296,2.503 -1.896,1.669 0,0"
             style="fill:#f2b705;fill-opacity:1;fill-rule:nonzero;stroke:none"
             id="path50" /></g><g
           id="g52"
           transform="translate(294.5039,443.2778)"><path
             d="m 0,0 c -20.916,0 -37.871,-16.956 -37.871,-37.871 0.001,-2.393 0.225,-4.78 0.671,-7.131 l 4.892,3.351 c 8.601,5.899 22.552,5.899 31.153,0 l 5.134,-3.516 2.782,-1.912 c 7.753,-5.312 20.312,-5.312 28.057,0 l 2.283,1.563 c 4.198,20.505 -9.021,40.532 -29.527,44.731 -2.488,0.51 -5.02,0.768 -7.56,0.77 z"
             style="fill:#f2b705;fill-opacity:1;fill-rule:nonzero;stroke:none"
             id="path54" /></g><g
           id="g56"
           transform="translate(315.7856,382.6562)"><path
             d="m 0,0 c -5.706,0 -11.162,1.548 -15.27,4.364 l -7.909,5.421 c -3.787,2.603 -8.872,4.036 -14.306,4.036 -5.435,0 -10.52,-1.425 -14.307,-4.036 l -5.114,-3.502 c -1.012,-0.693 -2.395,-0.434 -3.088,0.577 -0.693,1.013 -0.435,2.396 0.578,3.089 l 5.113,3.502 c 4.522,3.102 10.491,4.807 16.818,4.807 6.325,0 12.295,-1.705 16.817,-4.807 l 7.909,-5.421 c 7.831,-4.793 17.687,-4.793 25.518,0 l 3.003,2.054 c 1.012,0.693 2.395,0.436 3.088,-0.577 0.693,-1.013 0.435,-2.395 -0.578,-3.088 L 15.27,4.364 C 11.14,1.54 5.706,0 0,0"
             style="fill:#53cbc8;fill-opacity:1;fill-rule:nonzero;stroke:none"
             id="path58" /></g><g
           id="g60"
           transform="translate(278.1362,366.752)"><path
             d="m 0,0 v 21.396 c -0.017,0.45 0.002,0.901 0.057,1.348 0.138,1.219 1.17,2.14 2.396,2.139 1.189,-0.032 2.163,-0.954 2.261,-2.139 0.091,-0.743 0.117,-1.492 0.078,-2.24 v -41.316 -1.347 c -0.128,-1.583 -1.119,-2.625 -2.453,-2.596 -1.334,0.028 -2.297,1.112 -2.303,2.717 v 14.222 z"
             style="fill:#53cbc8;fill-opacity:1;fill-rule:nonzero;stroke:none"
             id="path62" /></g><g
           id="g64"
           transform="translate(273.6357,377.5215)"><path
             d="m 0,0 v -10.634 c 0,-1.819 -0.97,-3.024 -2.346,-2.981 -1.377,0.043 -2.418,1.269 -2.425,3.002 v 21.26 c 0,1.862 1.084,3.118 2.496,3.046 1.412,-0.071 2.254,-1.198 2.261,-3.059 C 0.007,7.089 0,3.544 0,0"
             style="fill:#53cbc8;fill-opacity:1;fill-rule:nonzero;stroke:none"
             id="path66" /></g><g
           id="g68"
           transform="translate(287.4507,377.5352)"><path
             d="m 0,0 v 7.475 c 0,1.733 0.92,2.852 2.289,2.852 1.37,0 2.425,-1.155 2.44,-2.788 0.052,-5.088 0.052,-10.173 0,-15.256 0,-1.733 -1.021,-2.774 -2.426,-2.76 -1.405,0.014 -2.303,1.078 -2.318,2.853 v 7.631 z"
             style="fill:#53cbc8;fill-opacity:1;fill-rule:nonzero;stroke:none"
             id="path70" /></g><g
           id="g72"
           transform="translate(259.5933,375.9805)"><path
             d="m 0,0 v 7.475 c 0,1.732 0.92,2.852 2.289,2.852 1.37,0 2.425,-1.155 2.44,-2.788 0.047,-5.088 0.047,-10.173 0,-15.256 0,-1.733 -1.028,-2.774 -2.426,-2.76 -1.397,0.014 -2.303,1.078 -2.318,2.853 v 7.631 z"
             style="fill:#53cbc8;fill-opacity:1;fill-rule:nonzero;stroke:none"
             id="path74" /></g><g
           id="g76"
           transform="translate(299.0615,382.3428)"><path
             d="m 0,0 h 0.007 c 1.296,0 2.347,-1.051 2.347,-2.347 v -4.065 c 0,-1.296 -1.051,-2.347 -2.347,-2.347 H 0 c -1.296,0 -2.347,1.051 -2.347,2.347 v 4.065 C -2.347,-1.051 -1.296,0 0,0"
             style="fill:#53cbc8;fill-opacity:1;fill-rule:nonzero;stroke:none"
             id="path78" /></g><g
           id="g80"
           transform="translate(308.3613,378.7832)"><path
             d="m 0,0 h 0.007 c 1.296,0 2.347,-1.051 2.347,-2.347 v -22.8 c 0,-1.296 -1.051,-2.346 -2.347,-2.346 H 0 c -1.296,0 -2.346,1.05 -2.346,2.346 v 22.8 C -2.346,-1.051 -1.296,0 0,0"
             style="fill:#53cbc8;fill-opacity:1;fill-rule:nonzero;stroke:none"
             id="path82" /></g><g
           id="g84"
           transform="translate(317.5972,377.8994)"><path
             d="m 0,0 h 0.007 c 1.296,0 2.347,-1.051 2.347,-2.347 v -19.378 c 0,-1.296 -1.051,-2.345 -2.347,-2.345 H 0 c -1.296,0 -2.346,1.049 -2.346,2.345 V -2.347 C -2.346,-1.051 -1.296,0 0,0"
             style="fill:#53cbc8;fill-opacity:1;fill-rule:nonzero;stroke:none"
             id="path86" /></g><g
           id="g88"
           transform="translate(326.9614,380.1104)"><path
             d="m 0,0 h 0.007 c 1.296,0 2.347,-1.051 2.347,-2.347 v -8.358 c 0,-1.296 -1.051,-2.347 -2.347,-2.347 H 0 c -1.296,0 -2.346,1.051 -2.346,2.347 v 8.358 C -2.346,-1.051 -1.296,0 0,0"
             style="fill:#53cbc8;fill-opacity:1;fill-rule:nonzero;stroke:none"
             id="path90" /></g></g></g></g></svg>
