<?xml version="1.0" encoding="utf-8"?>
<!-- Generator: Adobe Illustrator 25.2.3, SVG Export Plug-In . SVG Version: 6.00 Build 0)  -->
<svg version="1.1" id="Layer_1" xmlns="http://www.w3.org/2000/svg" xmlns:xlink="http://www.w3.org/1999/xlink" x="0px" y="0px"
	 viewBox="0 0 55 12.5" style="enable-background:new 0 0 55 12.5;" xml:space="preserve">
<style type="text/css">
	.st0{clip-path:url(#SVGID_2_);}
	.st1{fill:#1FA34A;}
	.st2{fill:none;}
</style>
<g>
	<defs>
		<rect id="SVGID_1_" x="1.3" y="1.8" width="13.9" height="9"/>
	</defs>
	<clipPath id="SVGID_2_">
		<use xlink:href="#SVGID_1_"  style="overflow:visible;"/>
	</clipPath>
	<g class="st0">
		<path class="st1" d="M9.5,9.4L9,8.9L8.3,9.7c0,0-0.1,0-0.1,0c0,0-0.1,0-0.1,0L7.3,8.9L6.8,9.4l1.3,1.3L9.5,9.4z"/>
		<path class="st1" d="M3.3,7.8h0.2V7.1L2.3,6.4c0,0,0,0-0.1-0.1c0,0,0-0.1,0-0.1l0-2.5c0,0,0-0.1,0-0.1c0,0,0,0,0.1-0.1l1.8-1
			c0,0,0.1,0,0.1,0c0,0,0.1,0,0.1,0l0.9,0.5l0.5-0.5L4.1,1.8L1.3,3.4v1.4l0.5-0.5v2.5L3.3,7.8z"/>
		<path class="st1" d="M4.1,2.9L2.5,3.8l0,2.3l1,0.6V4.8c0,0,0,0,0-0.1c0,0,0,0,0-0.1l1.3-1.3L4.1,2.9z"/>
		<path class="st1" d="M10.8,2.6l0.5,0.5l0.9-0.5c0,0,0.1,0,0.1,0c0,0,0.1,0,0.1,0l1.8,1c0,0,0,0,0.1,0.1s0,0.1,0,0.1l0,2.5
			c0,0,0,0.1,0,0.1c0,0,0,0-0.1,0.1l-1.3,0.8v0.7h0.2l1.6-0.9V4.4l0.5,0.5V3.4l-2.8-1.6L10.8,2.6z"/>
		<path class="st1" d="M13.9,6.1l0-2.3l-1.6-0.9l-0.8,0.4l1.3,1.3c0,0,0,0,0,0.1c0,0,0,0,0,0.1v1.9L13.9,6.1z"/>
		<path class="st1" d="M10.5,9.9l2-2v-3l-2.1-2.1H5.9L3.8,4.9v3l2,2l1.2-1.2L6.9,8.5c0,0,0-0.1,0-0.1c0,0,0-0.1,0-0.1L8,6.5
			c0,0,0,0,0.1,0c0,0,0,0,0.1,0c0,0,0,0,0.1,0c0,0,0,0,0.1,0l1.2,1.8c0,0,0,0.1,0,0.1c0,0,0,0.1,0,0.1L9.3,8.7L10.5,9.9z M10.4,7
			c0.1,0,0.1,0,0.2,0.1c0.1,0,0.1,0.1,0.1,0.2c0,0.1,0,0.1,0,0.2c0,0.1,0,0.1-0.1,0.2c-0.1,0.1-0.1,0.1-0.2,0.1c-0.1,0-0.1,0-0.2,0
			c-0.1,0-0.1-0.1-0.2-0.1c0-0.1-0.1-0.1-0.1-0.2c0,0,0-0.1,0-0.1c0,0,0-0.1,0.1-0.1c0,0,0.1-0.1,0.1-0.1C10.4,7,10.4,7,10.4,7
			L10.4,7z M5.7,7c0.1,0,0.2,0,0.2,0.1C6,7.2,6,7.3,6,7.4c0,0.1,0,0.2-0.1,0.3C5.9,7.7,5.8,7.7,5.7,7.7c-0.1,0-0.2,0-0.2-0.1
			C5.4,7.5,5.3,7.4,5.3,7.4c0-0.1,0-0.2,0.1-0.3C5.5,7,5.6,7,5.7,7z"/>
	</g>
</g>
<rect class="st2" width="55" height="12.5"/>
<rect class="st2" width="55" height="12.5"/>
</svg>
